<svg height="639pt" viewBox="-30 -20 639 639.99952" width="639pt" xmlns="http://www.w3.org/2000/svg"><path d="m564.199219 391.648438c-31.222657 19.710937-67.640625 29.597656-104.542969 28.398437-110.363281-.125-199.800781-89.5625-199.929688-199.929687 1.273438-84.84375 54.136719-160.339844 133.429688-190.554688 4.011719-1.480469 6.632812-5.351562 6.527344-9.628906-.113282-4.269532-2.925782-8.003906-7.003906-9.285156-30.308594-8.027344-61.632813-11.546876-92.964844-10.453126-165.632813 0-299.894532 134.269532-299.894532 299.894532s134.261719 299.894531 299.894532 299.894531c125.683594 1.296875 238.136718-77.855469 279.328125-196.601563 1.425781-4.03125.132812-8.527343-3.226563-11.175781-3.351562-2.65625-8.023437-2.882812-11.617187-.558593zm-264.484375 188.34375c-154.589844 0-279.902344-125.320313-279.902344-279.902344 0-154.585938 125.3125-279.902344 279.902344-279.902344 19.589844-.273438 39.179687.828125 58.617187 3.308594-72.070312 39.386718-117.382812 114.5-118.597656 196.621094.136719 121.402343 98.519531 219.785156 219.921875 219.921874 30.972656.667969 61.722656-5.398437 90.117188-17.78125-45.117188 97.148438-142.953126 158.859376-250.058594 157.734376zm0 0"/><path d="m549.171875 188.257812c-1.152344-3.703124-4.347656-6.402343-8.195313-6.925781l-57.078124-7.746093-25.402344-48.101563c-1.894532-3.0625-5.238282-4.921875-8.835938-4.921875-3.601562 0-6.941406 1.859375-8.839844 4.921875l-25.398437 48.101563-57.082031 7.746093c-3.851563.523438-7.046875 3.226563-8.199219 6.9375-1.152344 3.707031-.054687 7.753907 2.820313 10.367188l40.878906 37.238281-9.621094 52.40625c-.691406 3.71875.773438 7.511719 3.785156 9.796875 3.011719 2.289063 7.058594 2.679687 10.453125 1.011719l51.203125-25.183594 51.199219 25.183594c1.371094.667968 2.875 1.007812 4.402344 1 2.96875 0 5.785156-1.320313 7.683593-3.597656 1.898438-2.28125 2.6875-5.292969 2.152344-8.210938l-9.617187-52.40625 40.875-37.238281c2.878906-2.617188 3.976562-6.664063 2.816406-10.378907zm-61.257813 36.578126c-2.546874 2.324218-3.71875 5.800781-3.097656 9.199218l6.996094 38.335938-37.773438-18.574219c-2.78125-1.367187-6.039062-1.367187-8.820312 0l-37.746094 18.574219 7-38.335938c.625-3.398437-.550781-6.875-3.097656-9.199218l-29.160156-26.570313 40.984375-5.5625c3.195312-.433594 5.984375-2.390625 7.484375-5.246094l18.976562-35.894531 18.992188 35.894531c1.503906 2.855469 4.292968 4.8125 7.488281 5.246094l40.988281 5.5625zm0 0"/></svg>