<svg height="640pt" viewBox="-21 -20 640 640.00011" width="640pt" xmlns="http://www.w3.org/2000/svg"><path d="m504.019531 362.605469c44.867188-21.355469 79.105469-60.066407 94.808594-107.207031 1.398437-4.042969.058594-8.527344-3.316406-11.152344-3.378907-2.621094-8.050781-2.808594-11.625-.453125-18.21875 11.773437-39.597657 17.699219-61.277344 16.992187-65.632813-.871094-118.179687-54.691406-117.476563-120.320312.421876-50.667969 31.464844-96.035156 78.535157-114.792969 3.96875-1.503906 6.554687-5.359375 6.441406-9.601563-.105469-4.246093-2.886719-7.960937-6.933594-9.261718-18.78125-5.121094-38.230469-7.375-57.691406-6.6875-55.382813.90625-107.585937 26.050781-142.828125 68.785156-35.234375 42.738281-49.96875 98.773438-40.304688 153.316406-7.550781-1.398437-15.214843-2.121094-22.894531-2.144531-71.746093.082031-129.890625 58.222656-129.972656 129.972656.007813 10.535157 1.316406 21.035157 3.898437 31.253907-56.757812 8.660156-97.304687 59.527343-93.089843 116.792968 4.210937 57.257813 51.773437 101.644532 109.1875 101.902344h369.925781c61.457031-.019531 112.964844-46.476562 119.300781-107.605469 6.335938-61.125-34.539062-117.164062-94.6875-129.789062zm-240.230469-134.714844c-2.839843-12.402344-4.296874-25.085937-4.339843-37.808594-.964844-92.738281 73.300781-168.765625 166.035156-169.964843 7.699219 0 15.941406.144531 24.117187.800781-39.839843 26.804687-63.941406 71.492187-64.464843 119.511719-.691407 76.671874 60.804687 139.441406 137.472656 140.324218 15.90625.246094 31.738281-2.277344 46.777344-7.460937-21.578125 41.707031-60.382813 71.828125-106.136719 82.386719-.828125-2.269532-1.75-4.5-2.742188-6.699219-.117187-.253907-.21875-.503907-.335937-.75-.890625-1.917969-1.835937-3.804688-2.84375-5.648438-.285156-.53125-.570313-1.058593-.859375-1.582031-.890625-1.558594-1.820312-3.089844-2.777344-4.597656-.5-.78125-1-1.550782-1.511718-2.3125-.839844-1.238282-1.699219-2.449219-2.585938-3.636719-.742188-1-1.492188-2-2.261719-2.925781-.773437-.933594-1.519531-1.863282-2.308593-2.765625-.988282-1.140625-1.988282-2.265625-3-3.359375-.667969-.664063-1.332032-1.355469-2-2.070313-1.226563-1.222656-2.488282-2.414062-3.789063-3.578125-.570313-.507812-1.140625-1-1.71875-1.515625-1.449219-1.25-2.9375-2.441406-4.460937-3.597656-.496094-.382813-1-.773437-1.488282-1.144531-1.640625-1.199219-3.308594-2.335938-5-3.4375l-1.355468-.882813c-1.769532-1.097656-3.578126-2.140625-5.433594-3.128906l-1.328125-.726563c-1.859375-1-3.75-1.851562-5.679688-2.699218-.46875-.210938-.941406-.441406-1.410156-.640625-1.898437-.808594-3.835937-1.53125-5.789063-2.222657-.535156-.1875-1.058593-.398437-1.597656-.578124-1.914062-.632813-3.839844-1.175782-5.789062-1.699219-.621094-.160157-1.21875-.363281-1.839844-.507813-1.898438-.472656-3.828125-.839844-5.769531-1.203125-.6875-.128906-1.359375-.285156-1.996094-.398437-2.003906-.324219-3.941406-.53125-5.921875-.742188-.691406-.070312-1.359375-.175781-1.996094-.238281-2.832031-.210937-5.523437-.328125-8.234375-.328125-10.105469.015625-20.152343 1.585938-29.78125 4.65625-.792969.25-1.585937.441406-2.367187.714844-1.660156-3.574219-3.53125-7-5.484375-10.378906-.457031-.78125-.925781-1.554688-1.40625-2.320313-1.699219-2.789063-3.496094-5.5-5.378907-8.140625-.410156-.578125-.800781-1.160156-1.21875-1.730469-2.320312-3.128906-4.769531-6.15625-7.347656-9.046875-.429687-.480468-.894531-.929687-1.324218-1.398437-2.105469-2.300781-4.292969-4.515625-6.554688-6.652344-.925781-.867187-1.84375-1.714844-2.789062-2.566406-2-1.792969-4.089844-3.507813-6.199219-5.179688-1.332031-1-2.652344-2.070312-4-3.058593-2.257813-1.640626-4.558594-3.21875-6.921875-4.71875-1.640625-1-3.328125-2-5-3-1.449219-.828126-2.914063-1.625-4.386719-2.398438-1.832031-1-3.65625-1.914062-5.535156-2.792969-1.882813-.878906-3.890625-1.667969-5.851563-2.46875-1.429687-.507812-2.707031-1.175781-4.089844-1.691406zm215.617188 352.113281h-369.925781c-49.289063.207032-89.558594-39.304687-90.289063-88.585937-.734375-49.285157 38.347656-89.972657 87.617188-91.230469 3.199218-.09375 6.152344-1.714844 7.957031-4.351562 1.800781-2.640626 2.238281-5.984376 1.164063-8.996094-14.257813-39.636719-4.546876-83.9375 24.984374-113.980469s73.65625-40.515625 113.535157-26.9375c2.519531.859375 5 1.796875 7.460937 2.835937 1.492188.628907 2.96875 1.292969 4.417969 2 2.148437 1 4.273437 2.140626 6.339844 3.300782 1.578125.875 3.132812 1.785156 4.648437 2.738281 2.261719 1.402344 4.46875 2.882813 6.609375 4.4375.996094.742187 1.996094 1.496094 3 2.261719 2.765625 2.171875 5.484375 4.417968 7.996094 6.847656l.390625.402344c2.601562 2.488281 5.050781 5.128906 7.398438 7.867187.5.582031 1.003906 1.167969 1.492187 1.757813 4.792969 5.835937 8.980469 12.140625 12.496094 18.832031.390625.746094.78125 1.507813 1.160156 2.269531 1.699219 3.382813 3.222656 6.851563 4.554687 10.390625.976563 2.613281 2.992188 4.699219 5.5625 5.773438.800782.253906 1.628907.410156 2.46875.457031 1.871094.332031 3.792969.113281 5.542969-.628906 10.46875-4.878906 21.882813-7.40625 33.4375-7.40625 2.332031 0 4.640625.105468 6.929688.308594.601562.046874 1.179687.160156 1.769531.21875 1.699219.191406 3.390625.378906 5.050781.667968.609375.113282 1.199219.273438 1.808594.390625 1.632813.324219 3.273437.664063 4.867187 1.09375.5625.136719 1.101563.328125 1.660157.488281 1.621093.46875 3.242187 1 4.820312 1.527344.511719.179688 1 .402344 1.523438.601563 1.585937.609375 3.175781 1.238281 4.714843 2 .492188.222656 1 .46875 1.441407.699219 1.53125.742187 3 1.5 4.519531 2.328124.488281.285157 1 .582032 1.460938.871094 1.410156.84375 2.804687 1.703125 4.167968 2.609375.527344.371094 1.050782.753907 1.566406 1.128907 1.25.894531 2.488282 1.800781 3.679688 2.761718.613281.480469 1.191406.996094 1.792969 1.488282.996093.898437 2.078125 1.8125 3.074219 2.75.671874.667968 1.339843 1.332031 2.003906 2 .820312.832031 1.628906 1.679687 2.410156 2.539062.777344.859375 1.546875 1.769531 2.300781 2.679688.585938.703124 1.164063 1.425781 1.738281 2.160156.859376 1.128906 1.699219 2.269531 2.507813 3.449218.371094.539063.742187 1.089844 1.097656 1.640626.921875 1.40625 1.800781 2.835937 2.632813 4.308593l.570312 1c.917969 1.6875 1.785156 3.40625 2.597656 5.179688l.191407.429687c1.789062 4.015625 3.253906 8.171875 4.367187 12.429688.382813 1.433594.792969 2.875 1.078125 4.359375 1.089844 5.414062 6.367188 8.917969 11.78125 7.824219 37.316407-7.480469 75.644531 6.878906 98.863281 37.035156 23.222657 30.160156 27.304688 70.882812 10.535157 105.046875-16.769531 34.167969-51.484375 55.847656-89.542969 55.929687zm0 0"/></svg>