<svg height="638pt" viewBox="-20 -50 638.66662 638" width="638pt" xmlns="http://www.w3.org/2000/svg"><path d="m583.183594 174.582031c-12.261719 8.117188-26.753906 12.214844-41.449219 11.714844-45.195313-1.21875-80.890625-38.757813-79.835937-83.953125.058593-35.0625 21.152343-66.660156 53.507812-80.164062 3.921875-1.523438 6.460938-5.351563 6.355469-9.554688-.109375-4.207031-2.84375-7.894531-6.832031-9.214844-13.539063-3.796875-27.574219-5.480468-41.625-4.988281-73.898438 0-134.011719 62.667969-134.011719 139.707031 0 2.488282.097656 4.992188.257812 7.683594-4.597656.816406-9.128906 1.957031-13.570312 3.414062-21.183594-43.460937-65.320313-71.015624-113.671875-70.972656-68.632813-.609375-124.816406 54.441406-125.597656 123.074219.011718 9.753906 1.226562 19.476563 3.609374 28.9375-51.605468 6.96875-90.160156 50.941406-90.320312 103.015625.65625 58.109375 48.214844 104.726562 106.328125 104.226562 5.515625 0 9.976563-4.46875 9.976563-9.980468 0-5.511719-4.460938-9.980469-9.976563-9.980469-30.300781.800781-58.699219-14.75-74.34375-40.710937-15.652344-25.960938-16.136719-58.328126-1.28125-84.75 14.855469-26.421876 42.765625-42.824219 73.078125-42.9375 3.207031-.09375 6.175781-1.71875 7.972656-4.371094 1.804688-2.65625 2.21875-6.011719 1.121094-9.023438-4.058594-11.027344-6.148438-22.675781-6.179688-34.425781.777344-57.605469 48.007813-103.71875 105.613282-103.113281 43.730468-.125 83.046875 26.632812 98.980468 67.359375.980469 2.570312 2.972657 4.628906 5.515626 5.679687 2.546874 1.054688 5.410156 1.007813 7.917968-.125 8.300782-3.734375 17.191406-5.980468 26.265625-6.636718h.113281l.996094-.070313c1.585938-.097656 3.164063-.257813 4.773438-.257813 36.113281-.257812 67.488281 24.792969 75.226562 60.074219 1.105469 5.371094 6.332032 8.84375 11.710938 7.785157 3.59375-.695313 7.230468-1.179688 10.882812-1.457032.933594-.078125 1.847656-.089844 2.773438-.136718 2.816406-.152344 5.628906-.210938 8.433594-.113282.925781 0 1.847656.078125 2.765624.132813 3.074219.1875 6.136719.496093 9.167969.992187l1.476563.222656c11.019531 1.886719 21.625 5.640626 31.375 11.097657.621094.351562 1.21875.714843 1.839844 1.085937 2.425781 1.425782 4.777343 2.996094 7.074218 4.621094.835938.605469 1.683594 1.195312 2.503906 1.824219 2.253907 1.726562 4.425782 3.582031 6.527344 5.511719 19.171875 17.441406 30.132813 42.128906 30.207032 68.046874-.707032 52.355469-43.648438 94.265626-96.011719 93.695313-5.511719 0-9.976563 4.46875-9.976563 9.980469 0 5.511718 4.464844 9.980468 9.976563 9.980468 63.378906.558594 115.253906-50.28125 115.96875-113.65625-.007813-26.585937-9.5-52.296874-26.765625-72.519531 21.527344-16.707031 37.609375-39.4375 46.195312-65.304687 1.375-4.054688.003906-8.535156-3.402344-11.132813-3.40625-2.59375-8.089843-2.730469-11.636718-.332031zm-45.441406 62.5625c-.273438-.222656-.558594-.410156-.828126-.628906-.683593-.550781-1.398437-1.050781-2.101562-1.601563-2.140625-1.675781-4.316406-3.300781-6.5625-4.816406-.796875-.53125-1.625-1-2.4375-1.535156-2.234375-1.417969-4.484375-2.789062-6.804688-4.054688-.898437-.488281-1.824218-.945312-2.742187-1.417968-2.285156-1.164063-4.59375-2.265625-6.984375-3.277344-1-.445312-2.074219-.875-3.125-1.285156-2.304688-.914063-4.632812-1.753906-6.984375-2.511719-1.152344-.378906-2.296875-.738281-3.464844-1.078125-2.335937-.675781-4.699219-1.265625-7.09375-1.796875-1.21875-.269531-2.421875-.566406-3.660156-.804687-2.503906-.472657-4.992187-.820313-7.585937-1.140626-1.136719-.140624-2.257813-.324218-3.402344-.4375-3.695313-.339843-7.40625-.550781-11.160156-.550781-4.546876 0-9.085938.261719-13.597657.789063-.769531-2.425782-1.636719-4.808594-2.589843-7.144532-.304688-.75-.675782-1.464843-.996094-2.207031-.6875-1.5625-1.355469-3.132812-2.125-4.636719-.4375-.878906-.945313-1.707031-1.417969-2.5625-.726563-1.339843-1.4375-2.675781-2.222656-3.996093-.558594-.917969-1.1875-1.785157-1.777344-2.6875-.78125-1.171875-1.527344-2.363281-2.355469-3.496094-.667968-.921875-1.386718-1.789063-2.085937-2.675781-.828125-1.066406-1.636719-2.148438-2.511719-3.175782-.882812-1.03125-1.558594-1.707031-2.351562-2.566406-.78125-.855468-1.753907-1.996094-2.667969-2.882812-.921875-.886719-1.71875-1.617188-2.589844-2.421875-.867187-.808594-1.875-1.789063-2.851563-2.636719-.976562-.847656-1.859374-1.496094-2.785156-2.246094-.925781-.75-1.996094-1.625-2.992187-2.382812-.996094-.757813-1.996094-1.367188-2.996094-1.996094s-2.09375-1.457031-3.179687-2.136719c-1.089844-.679687-2.085938-1.226562-3.132813-1.824219-1.050781-.601562-2.21875-1.296874-3.355469-1.898437-1.140625-.597656-2.167968-1.054687-3.253906-1.578125-1.085938-.515625-2.332031-1.125-3.53125-1.636719-1.199219-.507812-2.226562-.886719-3.355469-1.324219-1.128906-.4375-2.453125-1-3.703125-1.390624-1.246094-.390626-2.273437-.707032-3.417968-1.046876-1.152344-.335937-2.570313-.773437-3.875-1.117187-1.144532-.285156-2.3125-.53125-3.484376-.777344-1.335937-.289062-2.664062-.589843-3.988281-.820312-1.171875-.199219-2.355469-.34375-3.535156-.503907-1.378906-.191406-2.761719-.382812-4.160156-.511718-1.167969-.109375-2.34375-.167969-3.523438-.230469-1-.058594-1.992187-.171875-2.921875-.199219-.164062-2.164062-.222656-4.160156-.222656-6.15625 0-66.03125 51.164062-119.75 114.054688-119.75 2.945312 0 5.984374 0 9.097656.136719-25.351563 20.476563-40.203125 51.238281-40.460938 83.828125-.910156 31.824219 13.234375 62.21875 38.164063 82.023438 24.925781 19.808593 57.734375 26.707031 88.53125 18.628906-7.875 13.359375-18.386719 24.976562-30.894531 34.148437zm0 0"/><path d="m429.105469 467.445312c0-31.679687-37.011719-97.363281-41.230469-104.78125-1.925781-2.914062-5.175781-4.664062-8.664062-4.664062-3.488282 0-6.738282 1.75-8.664063 4.664062-4.21875 7.417969-41.234375 73.101563-41.234375 104.78125 0 27.554688 22.34375 49.894532 49.898438 49.894532 27.554687 0 49.894531-22.339844 49.894531-49.894532zm-49.894531 29.9375c-16.535157 0-29.9375-13.40625-29.9375-29.9375 0-17.644531 17.339843-54.78125 29.9375-78.898437 12.59375 24.117187 29.9375 61.253906 29.9375 78.898437 0 16.53125-13.40625 29.9375-29.9375 29.9375zm0 0"/><path d="m270.753906 262.871094c-4.21875 7.421875-41.230468 73.105468-41.230468 104.78125 0 27.554687 22.339843 49.894531 49.894531 49.894531 27.554687 0 49.894531-22.339844 49.894531-49.894531 0-31.675782-37.011719-97.359375-41.230469-104.78125-1.925781-2.914063-5.175781-4.664063-8.664062-4.664063s-6.738281 1.75-8.664063 4.664063zm8.664063 134.71875c-16.53125 0-29.9375-13.40625-29.9375-29.9375 0-17.644532 17.34375-54.777344 29.9375-78.898438 12.597656 24.121094 29.9375 61.253906 29.9375 78.898438 0 16.53125-13.40625 29.9375-29.9375 29.9375zm0 0"/><path d="m180.941406 382.621094c-4.21875 7.421875-41.230468 73.105468-41.230468 104.78125 0 27.554687 22.339843 49.898437 49.894531 49.898437 27.554687 0 49.894531-22.34375 49.894531-49.898437 0-31.675782-37.011719-97.359375-41.230469-104.78125-1.925781-2.914063-5.175781-4.664063-8.664062-4.664063s-6.738281 1.75-8.664063 4.664063zm8.664063 134.71875c-16.535157 0-29.9375-13.402344-29.9375-29.9375 0-17.644532 17.339843-54.777344 29.9375-78.898438 12.59375 24.121094 29.9375 61.253906 29.9375 78.898438 0 16.535156-13.40625 29.9375-29.9375 29.9375zm0 0"/></svg>